<mxfile host="app.diagrams.net" modified="2024-05-06T02:18:46.902Z" agent="Mozilla/5.0 (X11; Linux x86_64) AppleWebKit/537.36 (KHTML, like Gecko) Chrome/108.0.0.0 Safari/537.36" etag="NNKXDAlwhnbxSHz-MaY8" version="24.1.0" type="github">
  <diagram name="第 1 页" id="38vhfECk59cTZKULbnbE">
    <mxGraphModel dx="1482" dy="823" grid="1" gridSize="10" guides="1" tooltips="1" connect="1" arrows="1" fold="1" page="1" pageScale="1" pageWidth="827" pageHeight="1169" math="0" shadow="0">
      <root>
        <mxCell id="0" />
        <mxCell id="1" parent="0" />
        <mxCell id="PkrKyq_lBLV9Tqg6hcgz-1" value="数鑫可信数据空间系统（FlexiTDL）" style="rounded=0;whiteSpace=wrap;html=1;" vertex="1" parent="1">
          <mxGeometry x="84" y="40" width="666" height="40" as="geometry" />
        </mxCell>
        <mxCell id="PkrKyq_lBLV9Tqg6hcgz-2" value="数据提供方（DPE）" style="rounded=0;whiteSpace=wrap;html=1;" vertex="1" parent="1">
          <mxGeometry x="84" y="80" width="336" height="40" as="geometry" />
        </mxCell>
        <mxCell id="PkrKyq_lBLV9Tqg6hcgz-3" value="数据需求方（DCE）" style="rounded=0;whiteSpace=wrap;html=1;" vertex="1" parent="1">
          <mxGeometry x="420" y="80" width="330" height="40" as="geometry" />
        </mxCell>
        <mxCell id="PkrKyq_lBLV9Tqg6hcgz-4" value="" style="rounded=0;whiteSpace=wrap;html=1;" vertex="1" parent="1">
          <mxGeometry x="84" y="120" width="336" height="1650" as="geometry" />
        </mxCell>
        <mxCell id="PkrKyq_lBLV9Tqg6hcgz-5" value="" style="rounded=0;whiteSpace=wrap;html=1;" vertex="1" parent="1">
          <mxGeometry x="420" y="120" width="330" height="1650" as="geometry" />
        </mxCell>
        <mxCell id="PkrKyq_lBLV9Tqg6hcgz-6" style="edgeStyle=orthogonalEdgeStyle;rounded=0;orthogonalLoop=1;jettySize=auto;html=1;exitX=0.5;exitY=1;exitDx=0;exitDy=0;strokeColor=#000000;" edge="1" parent="1" source="PkrKyq_lBLV9Tqg6hcgz-8" target="PkrKyq_lBLV9Tqg6hcgz-14">
          <mxGeometry relative="1" as="geometry" />
        </mxCell>
        <mxCell id="PkrKyq_lBLV9Tqg6hcgz-7" value="" style="rounded=0;orthogonalLoop=1;jettySize=auto;html=1;entryX=0;entryY=0.5;entryDx=0;entryDy=0;" edge="1" parent="1" source="PkrKyq_lBLV9Tqg6hcgz-8" target="PkrKyq_lBLV9Tqg6hcgz-12">
          <mxGeometry relative="1" as="geometry" />
        </mxCell>
        <mxCell id="PkrKyq_lBLV9Tqg6hcgz-8" value="创建合作方，将DCE新增进来" style="rounded=0;whiteSpace=wrap;html=1;fillColor=#99CCFF;strokeColor=#6666FF;" vertex="1" parent="1">
          <mxGeometry x="160" y="140" width="170" height="30" as="geometry" />
        </mxCell>
        <mxCell id="PkrKyq_lBLV9Tqg6hcgz-9" value="" style="edgeStyle=orthogonalEdgeStyle;rounded=0;orthogonalLoop=1;jettySize=auto;html=1;strokeColor=#000000;" edge="1" parent="1" source="PkrKyq_lBLV9Tqg6hcgz-12" target="PkrKyq_lBLV9Tqg6hcgz-17">
          <mxGeometry relative="1" as="geometry" />
        </mxCell>
        <mxCell id="PkrKyq_lBLV9Tqg6hcgz-10" value="" style="edgeStyle=orthogonalEdgeStyle;rounded=0;orthogonalLoop=1;jettySize=auto;html=1;entryX=1;entryY=0.5;entryDx=0;entryDy=0;" edge="1" parent="1" source="PkrKyq_lBLV9Tqg6hcgz-12" target="PkrKyq_lBLV9Tqg6hcgz-8">
          <mxGeometry relative="1" as="geometry" />
        </mxCell>
        <mxCell id="PkrKyq_lBLV9Tqg6hcgz-11" value="设备互信" style="edgeLabel;html=1;align=center;verticalAlign=middle;resizable=0;points=[];" vertex="1" connectable="0" parent="PkrKyq_lBLV9Tqg6hcgz-10">
          <mxGeometry x="0.4725" y="-2" relative="1" as="geometry">
            <mxPoint as="offset" />
          </mxGeometry>
        </mxCell>
        <mxCell id="PkrKyq_lBLV9Tqg6hcgz-12" value="创建合作方，将DPE新增进来" style="rounded=0;whiteSpace=wrap;html=1;fillColor=#99CCFF;strokeColor=#6666FF;" vertex="1" parent="1">
          <mxGeometry x="510" y="140" width="170" height="30" as="geometry" />
        </mxCell>
        <mxCell id="PkrKyq_lBLV9Tqg6hcgz-13" value="" style="edgeStyle=orthogonalEdgeStyle;rounded=0;orthogonalLoop=1;jettySize=auto;html=1;fillColor=#99CCFF;strokeColor=#000000;" edge="1" parent="1" source="PkrKyq_lBLV9Tqg6hcgz-14" target="PkrKyq_lBLV9Tqg6hcgz-15">
          <mxGeometry relative="1" as="geometry" />
        </mxCell>
        <mxCell id="PkrKyq_lBLV9Tqg6hcgz-14" value="创建开放域" style="rounded=0;whiteSpace=wrap;html=1;fillColor=#99CCFF;strokeColor=#6666FF;" vertex="1" parent="1">
          <mxGeometry x="160" y="193" width="170" height="30" as="geometry" />
        </mxCell>
        <mxCell id="PkrKyq_lBLV9Tqg6hcgz-15" value="创建开放资源" style="rounded=0;whiteSpace=wrap;html=1;fillColor=#99CCFF;strokeColor=#6666FF;" vertex="1" parent="1">
          <mxGeometry x="160" y="249" width="170" height="30" as="geometry" />
        </mxCell>
        <mxCell id="PkrKyq_lBLV9Tqg6hcgz-16" value="" style="edgeStyle=orthogonalEdgeStyle;rounded=0;orthogonalLoop=1;jettySize=auto;html=1;fillColor=#99CCFF;strokeColor=#000000;" edge="1" parent="1" source="PkrKyq_lBLV9Tqg6hcgz-17" target="PkrKyq_lBLV9Tqg6hcgz-19">
          <mxGeometry relative="1" as="geometry" />
        </mxCell>
        <mxCell id="PkrKyq_lBLV9Tqg6hcgz-17" value="创建上层应用系统" style="rounded=0;whiteSpace=wrap;html=1;fillColor=#99CCFF;strokeColor=#6666FF;" vertex="1" parent="1">
          <mxGeometry x="510" y="193" width="170" height="30" as="geometry" />
        </mxCell>
        <mxCell id="PkrKyq_lBLV9Tqg6hcgz-18" value="" style="edgeStyle=orthogonalEdgeStyle;rounded=0;orthogonalLoop=1;jettySize=auto;html=1;entryX=0.5;entryY=0;entryDx=0;entryDy=0;" edge="1" parent="1" source="PkrKyq_lBLV9Tqg6hcgz-19" target="PkrKyq_lBLV9Tqg6hcgz-21">
          <mxGeometry relative="1" as="geometry" />
        </mxCell>
        <mxCell id="PkrKyq_lBLV9Tqg6hcgz-19" value="创建沙盒APP" style="rounded=0;whiteSpace=wrap;html=1;fillColor=#99CCFF;strokeColor=#6666FF;" vertex="1" parent="1">
          <mxGeometry x="510" y="249" width="170" height="30" as="geometry" />
        </mxCell>
        <mxCell id="PkrKyq_lBLV9Tqg6hcgz-20" value="" style="edgeStyle=orthogonalEdgeStyle;rounded=0;orthogonalLoop=1;jettySize=auto;html=1;" edge="1" parent="1" source="PkrKyq_lBLV9Tqg6hcgz-21" target="PkrKyq_lBLV9Tqg6hcgz-23">
          <mxGeometry relative="1" as="geometry" />
        </mxCell>
        <mxCell id="PkrKyq_lBLV9Tqg6hcgz-21" value="发起使用策略协商" style="rounded=0;whiteSpace=wrap;html=1;fillColor=#99CCFF;strokeColor=#6666FF;" vertex="1" parent="1">
          <mxGeometry x="510" y="763" width="170" height="30" as="geometry" />
        </mxCell>
        <mxCell id="PkrKyq_lBLV9Tqg6hcgz-22" style="edgeStyle=orthogonalEdgeStyle;rounded=0;orthogonalLoop=1;jettySize=auto;html=1;exitX=0.5;exitY=1;exitDx=0;exitDy=0;" edge="1" parent="1" source="PkrKyq_lBLV9Tqg6hcgz-23" target="PkrKyq_lBLV9Tqg6hcgz-26">
          <mxGeometry relative="1" as="geometry">
            <Array as="points">
              <mxPoint x="245" y="809" />
              <mxPoint x="595" y="809" />
            </Array>
          </mxGeometry>
        </mxCell>
        <mxCell id="PkrKyq_lBLV9Tqg6hcgz-23" value="DPE反馈协商" style="rounded=0;whiteSpace=wrap;html=1;fillColor=#99CCFF;strokeColor=#6666FF;" vertex="1" parent="1">
          <mxGeometry x="160" y="763" width="170" height="30" as="geometry" />
        </mxCell>
        <mxCell id="PkrKyq_lBLV9Tqg6hcgz-24" value="" style="edgeStyle=orthogonalEdgeStyle;rounded=0;orthogonalLoop=1;jettySize=auto;html=1;fillColor=#99CCFF;strokeColor=#000000;" edge="1" parent="1" source="PkrKyq_lBLV9Tqg6hcgz-26" target="PkrKyq_lBLV9Tqg6hcgz-80">
          <mxGeometry relative="1" as="geometry" />
        </mxCell>
        <mxCell id="PkrKyq_lBLV9Tqg6hcgz-25" value="协商成功" style="edgeLabel;html=1;align=center;verticalAlign=middle;resizable=0;points=[];fillColor=#99CCFF;strokeColor=#000000;" vertex="1" connectable="0" parent="PkrKyq_lBLV9Tqg6hcgz-24">
          <mxGeometry x="0.3785" y="4" relative="1" as="geometry">
            <mxPoint as="offset" />
          </mxGeometry>
        </mxCell>
        <mxCell id="PkrKyq_lBLV9Tqg6hcgz-26" value="DCE确认协商" style="rounded=0;whiteSpace=wrap;html=1;fillColor=#99CCFF;strokeColor=#6666FF;" vertex="1" parent="1">
          <mxGeometry x="510" y="825" width="170" height="30" as="geometry" />
        </mxCell>
        <mxCell id="PkrKyq_lBLV9Tqg6hcgz-27" value="停止沙盒" style="rounded=0;whiteSpace=wrap;html=1;fillColor=#99CCFF;strokeColor=#6666FF;" vertex="1" parent="1">
          <mxGeometry x="160" y="1720" width="170" height="30" as="geometry" />
        </mxCell>
        <mxCell id="PkrKyq_lBLV9Tqg6hcgz-28" value="停止沙盒" style="rounded=0;whiteSpace=wrap;html=1;fillColor=#99CCFF;strokeColor=#6666FF;" vertex="1" parent="1">
          <mxGeometry x="510" y="1720" width="170" height="30" as="geometry" />
        </mxCell>
        <mxCell id="PkrKyq_lBLV9Tqg6hcgz-29" value="" style="edgeStyle=orthogonalEdgeStyle;rounded=0;orthogonalLoop=1;jettySize=auto;html=1;entryX=0.5;entryY=0;entryDx=0;entryDy=0;fillColor=#99CCFF;strokeColor=#000000;" edge="1" parent="1" source="PkrKyq_lBLV9Tqg6hcgz-30" target="PkrKyq_lBLV9Tqg6hcgz-68">
          <mxGeometry relative="1" as="geometry" />
        </mxCell>
        <mxCell id="PkrKyq_lBLV9Tqg6hcgz-30" value="（开发态）启动任务，初加工数据进入待开放空间" style="rounded=0;whiteSpace=wrap;html=1;fillColor=#99CCFF;strokeColor=#6666FF;" vertex="1" parent="1">
          <mxGeometry x="160" y="592" width="170" height="30" as="geometry" />
        </mxCell>
        <mxCell id="PkrKyq_lBLV9Tqg6hcgz-31" value="" style="edgeStyle=orthogonalEdgeStyle;rounded=0;orthogonalLoop=1;jettySize=auto;html=1;entryX=0;entryY=0.5;entryDx=0;entryDy=0;exitX=1;exitY=0.5;exitDx=0;exitDy=0;" edge="1" parent="1" source="PkrKyq_lBLV9Tqg6hcgz-33" target="PkrKyq_lBLV9Tqg6hcgz-17">
          <mxGeometry relative="1" as="geometry">
            <Array as="points">
              <mxPoint x="480" y="720" />
              <mxPoint x="480" y="208" />
            </Array>
          </mxGeometry>
        </mxCell>
        <mxCell id="PkrKyq_lBLV9Tqg6hcgz-32" value="DPE已将数据准备好" style="edgeLabel;html=1;align=center;verticalAlign=middle;resizable=0;points=[];" vertex="1" connectable="0" parent="PkrKyq_lBLV9Tqg6hcgz-31">
          <mxGeometry x="0.1566" relative="1" as="geometry">
            <mxPoint as="offset" />
          </mxGeometry>
        </mxCell>
        <mxCell id="PkrKyq_lBLV9Tqg6hcgz-33" value="将开放资源授权给合作方" style="rounded=0;whiteSpace=wrap;html=1;fillColor=#99CCFF;strokeColor=#6666FF;" vertex="1" parent="1">
          <mxGeometry x="160" y="705" width="170" height="30" as="geometry" />
        </mxCell>
        <mxCell id="PkrKyq_lBLV9Tqg6hcgz-34" value="" style="rounded=0;whiteSpace=wrap;html=1;strokeColor=#FF3333;" vertex="1" parent="1">
          <mxGeometry x="110" y="294" width="260" height="226" as="geometry" />
        </mxCell>
        <mxCell id="PkrKyq_lBLV9Tqg6hcgz-35" value="" style="edgeStyle=orthogonalEdgeStyle;rounded=0;orthogonalLoop=1;jettySize=auto;html=1;entryX=0.5;entryY=0;entryDx=0;entryDy=0;fillColor=#99CCFF;strokeColor=#000000;" edge="1" parent="1" source="PkrKyq_lBLV9Tqg6hcgz-36" target="PkrKyq_lBLV9Tqg6hcgz-40">
          <mxGeometry relative="1" as="geometry" />
        </mxCell>
        <mxCell id="PkrKyq_lBLV9Tqg6hcgz-36" value="（开发态）启动沙盒APP" style="rounded=0;whiteSpace=wrap;html=1;fillColor=#99CCFF;strokeColor=#6666FF;" vertex="1" parent="1">
          <mxGeometry x="510" y="1220" width="170" height="30" as="geometry" />
        </mxCell>
        <mxCell id="PkrKyq_lBLV9Tqg6hcgz-37" value="" style="edgeStyle=orthogonalEdgeStyle;rounded=0;orthogonalLoop=1;jettySize=auto;html=1;entryX=0.5;entryY=0;entryDx=0;entryDy=0;fillColor=#99CCFF;strokeColor=#000000;" edge="1" parent="1" source="PkrKyq_lBLV9Tqg6hcgz-40" target="PkrKyq_lBLV9Tqg6hcgz-50">
          <mxGeometry relative="1" as="geometry" />
        </mxCell>
        <mxCell id="PkrKyq_lBLV9Tqg6hcgz-38" value="至此，开发态的调试工作完成&lt;div&gt;包括策略协商和数据测试&lt;/div&gt;" style="edgeLabel;html=1;align=center;verticalAlign=middle;resizable=0;points=[];fillColor=#99CCFF;strokeColor=#6666FF;" vertex="1" connectable="0" parent="PkrKyq_lBLV9Tqg6hcgz-37">
          <mxGeometry x="0.0313" y="2" relative="1" as="geometry">
            <mxPoint as="offset" />
          </mxGeometry>
        </mxCell>
        <mxCell id="PkrKyq_lBLV9Tqg6hcgz-39" value="" style="edgeStyle=orthogonalEdgeStyle;rounded=0;orthogonalLoop=1;jettySize=auto;html=1;entryX=0.5;entryY=0;entryDx=0;entryDy=0;fillColor=#99CCFF;strokeColor=#000000;" edge="1" parent="1" source="PkrKyq_lBLV9Tqg6hcgz-40" target="PkrKyq_lBLV9Tqg6hcgz-42">
          <mxGeometry relative="1" as="geometry" />
        </mxCell>
        <mxCell id="PkrKyq_lBLV9Tqg6hcgz-40" value="（开发态）查看数据落地结果" style="rounded=0;whiteSpace=wrap;html=1;fillColor=#99CCFF;strokeColor=#6666FF;" vertex="1" parent="1">
          <mxGeometry x="510" y="1280" width="170" height="30" as="geometry" />
        </mxCell>
        <mxCell id="PkrKyq_lBLV9Tqg6hcgz-41" value="" style="edgeStyle=orthogonalEdgeStyle;rounded=0;orthogonalLoop=1;jettySize=auto;html=1;entryX=0.5;entryY=0;entryDx=0;entryDy=0;fillColor=#99CCFF;strokeColor=#000000;" edge="1" parent="1" source="PkrKyq_lBLV9Tqg6hcgz-90" target="PkrKyq_lBLV9Tqg6hcgz-91">
          <mxGeometry relative="1" as="geometry" />
        </mxCell>
        <mxCell id="PkrKyq_lBLV9Tqg6hcgz-42" value="（开发态）停止DCE端沙盒" style="rounded=0;whiteSpace=wrap;html=1;fillColor=#99CCFF;strokeColor=#6666FF;" vertex="1" parent="1">
          <mxGeometry x="510" y="1337" width="170" height="30" as="geometry" />
        </mxCell>
        <mxCell id="PkrKyq_lBLV9Tqg6hcgz-43" value="" style="edgeStyle=orthogonalEdgeStyle;rounded=0;orthogonalLoop=1;jettySize=auto;html=1;entryX=0.5;entryY=0;entryDx=0;entryDy=0;fillColor=#99CCFF;strokeColor=#000000;exitX=0.5;exitY=1;exitDx=0;exitDy=0;" edge="1" parent="1" source="PkrKyq_lBLV9Tqg6hcgz-91" target="PkrKyq_lBLV9Tqg6hcgz-45">
          <mxGeometry relative="1" as="geometry">
            <mxPoint x="595.0526315789475" y="1566" as="sourcePoint" />
          </mxGeometry>
        </mxCell>
        <mxCell id="PkrKyq_lBLV9Tqg6hcgz-44" value="" style="edgeStyle=orthogonalEdgeStyle;rounded=0;orthogonalLoop=1;jettySize=auto;html=1;fillColor=#99CCFF;strokeColor=#000000;" edge="1" parent="1" source="PkrKyq_lBLV9Tqg6hcgz-45" target="PkrKyq_lBLV9Tqg6hcgz-48">
          <mxGeometry relative="1" as="geometry" />
        </mxCell>
        <mxCell id="PkrKyq_lBLV9Tqg6hcgz-45" value="（生产态）启动DCE端沙盒" style="rounded=0;whiteSpace=wrap;html=1;fillColor=#99CCFF;strokeColor=#6666FF;" vertex="1" parent="1">
          <mxGeometry x="510" y="1530" width="170" height="30" as="geometry" />
        </mxCell>
        <mxCell id="PkrKyq_lBLV9Tqg6hcgz-46" value="" style="edgeStyle=orthogonalEdgeStyle;rounded=0;orthogonalLoop=1;jettySize=auto;html=1;fillColor=#99CCFF;strokeColor=#000000;" edge="1" parent="1" source="PkrKyq_lBLV9Tqg6hcgz-48" target="PkrKyq_lBLV9Tqg6hcgz-28">
          <mxGeometry relative="1" as="geometry" />
        </mxCell>
        <mxCell id="PkrKyq_lBLV9Tqg6hcgz-47" value="" style="edgeStyle=orthogonalEdgeStyle;rounded=0;orthogonalLoop=1;jettySize=auto;html=1;entryX=0.5;entryY=0;entryDx=0;entryDy=0;" edge="1" parent="1" target="PkrKyq_lBLV9Tqg6hcgz-27">
          <mxGeometry relative="1" as="geometry">
            <mxPoint x="595" y="1680" as="sourcePoint" />
            <Array as="points">
              <mxPoint x="595" y="1700" />
              <mxPoint x="245" y="1700" />
            </Array>
          </mxGeometry>
        </mxCell>
        <mxCell id="PkrKyq_lBLV9Tqg6hcgz-48" value="（生产态）查看数据落地结果" style="rounded=0;whiteSpace=wrap;html=1;fillColor=#99CCFF;strokeColor=#6666FF;" vertex="1" parent="1">
          <mxGeometry x="510" y="1600" width="170" height="30" as="geometry" />
        </mxCell>
        <mxCell id="PkrKyq_lBLV9Tqg6hcgz-49" value="" style="edgeStyle=orthogonalEdgeStyle;rounded=0;orthogonalLoop=1;jettySize=auto;html=1;fillColor=#99CCFF;strokeColor=#000000;entryX=0.5;entryY=0;entryDx=0;entryDy=0;" edge="1" parent="1" source="PkrKyq_lBLV9Tqg6hcgz-50" target="PkrKyq_lBLV9Tqg6hcgz-84">
          <mxGeometry relative="1" as="geometry" />
        </mxCell>
        <mxCell id="PkrKyq_lBLV9Tqg6hcgz-50" value="（开发态）停止DPE端沙盒" style="rounded=0;whiteSpace=wrap;html=1;fillColor=#99CCFF;strokeColor=#6666FF;" vertex="1" parent="1">
          <mxGeometry x="160" y="1337" width="170" height="30" as="geometry" />
        </mxCell>
        <mxCell id="PkrKyq_lBLV9Tqg6hcgz-51" value="" style="edgeStyle=orthogonalEdgeStyle;rounded=0;orthogonalLoop=1;jettySize=auto;html=1;fillColor=#99CCFF;strokeColor=#000000;" edge="1" parent="1" source="PkrKyq_lBLV9Tqg6hcgz-52" target="PkrKyq_lBLV9Tqg6hcgz-54">
          <mxGeometry relative="1" as="geometry" />
        </mxCell>
        <mxCell id="PkrKyq_lBLV9Tqg6hcgz-52" value="（生产态）配置生产环境的连接器地址、账密、表名/Topic" style="rounded=0;whiteSpace=wrap;html=1;fillColor=#99CCFF;strokeColor=#6666FF;" vertex="1" parent="1">
          <mxGeometry x="160" y="1459" width="170" height="39" as="geometry" />
        </mxCell>
        <mxCell id="PkrKyq_lBLV9Tqg6hcgz-53" value="" style="edgeStyle=orthogonalEdgeStyle;rounded=0;orthogonalLoop=1;jettySize=auto;html=1;fillColor=#99CCFF;strokeColor=#000000;entryX=0.5;entryY=0;entryDx=0;entryDy=0;" edge="1" parent="1" source="PkrKyq_lBLV9Tqg6hcgz-54" target="PkrKyq_lBLV9Tqg6hcgz-86">
          <mxGeometry relative="1" as="geometry" />
        </mxCell>
        <mxCell id="PkrKyq_lBLV9Tqg6hcgz-54" value="（生产态）启动DPE端沙盒" style="rounded=0;whiteSpace=wrap;html=1;fillColor=#99CCFF;strokeColor=#6666FF;" vertex="1" parent="1">
          <mxGeometry x="160" y="1530" width="170" height="30" as="geometry" />
        </mxCell>
        <mxCell id="PkrKyq_lBLV9Tqg6hcgz-55" value="" style="edgeStyle=orthogonalEdgeStyle;rounded=0;orthogonalLoop=1;jettySize=auto;html=1;entryX=0.5;entryY=0;entryDx=0;entryDy=0;fillColor=#99CCFF;strokeColor=#000000;" edge="1" parent="1" source="PkrKyq_lBLV9Tqg6hcgz-56" target="PkrKyq_lBLV9Tqg6hcgz-58">
          <mxGeometry relative="1" as="geometry">
            <mxPoint x="245" y="390" as="targetPoint" />
          </mxGeometry>
        </mxCell>
        <mxCell id="PkrKyq_lBLV9Tqg6hcgz-56" value="通用配置(状态后端/数据源类型)" style="rounded=0;whiteSpace=wrap;html=1;fillColor=#99CCFF;strokeColor=#6666FF;" vertex="1" parent="1">
          <mxGeometry x="160" y="309" width="170" height="30" as="geometry" />
        </mxCell>
        <mxCell id="PkrKyq_lBLV9Tqg6hcgz-57" value="" style="edgeStyle=orthogonalEdgeStyle;rounded=0;orthogonalLoop=1;jettySize=auto;html=1;entryX=0.5;entryY=0;entryDx=0;entryDy=0;fillColor=#99CCFF;strokeColor=#000000;" edge="1" parent="1" source="PkrKyq_lBLV9Tqg6hcgz-58" target="PkrKyq_lBLV9Tqg6hcgz-60">
          <mxGeometry relative="1" as="geometry" />
        </mxCell>
        <mxCell id="PkrKyq_lBLV9Tqg6hcgz-58" value="配置数据源连接器" style="rounded=0;whiteSpace=wrap;html=1;fillColor=#99CCFF;strokeColor=#6666FF;" vertex="1" parent="1">
          <mxGeometry x="160" y="364" width="170" height="30" as="geometry" />
        </mxCell>
        <mxCell id="PkrKyq_lBLV9Tqg6hcgz-59" value="" style="edgeStyle=orthogonalEdgeStyle;rounded=0;orthogonalLoop=1;jettySize=auto;html=1;fillColor=#99CCFF;strokeColor=#000000;" edge="1" parent="1" source="PkrKyq_lBLV9Tqg6hcgz-60" target="PkrKyq_lBLV9Tqg6hcgz-62">
          <mxGeometry relative="1" as="geometry" />
        </mxCell>
        <mxCell id="PkrKyq_lBLV9Tqg6hcgz-60" value="配置落地连接器" style="rounded=0;whiteSpace=wrap;html=1;fillColor=#99CCFF;strokeColor=#6666FF;" vertex="1" parent="1">
          <mxGeometry x="160" y="421" width="170" height="30" as="geometry" />
        </mxCell>
        <mxCell id="PkrKyq_lBLV9Tqg6hcgz-61" value="" style="edgeStyle=orthogonalEdgeStyle;rounded=0;orthogonalLoop=1;jettySize=auto;html=1;entryX=0.5;entryY=0;entryDx=0;entryDy=0;strokeColor=#000000;" edge="1" parent="1" source="PkrKyq_lBLV9Tqg6hcgz-62" target="PkrKyq_lBLV9Tqg6hcgz-66">
          <mxGeometry relative="1" as="geometry" />
        </mxCell>
        <mxCell id="PkrKyq_lBLV9Tqg6hcgz-62" value="配置资源接入逻辑" style="rounded=0;whiteSpace=wrap;html=1;fillColor=#99CCFF;strokeColor=#6666FF;" vertex="1" parent="1">
          <mxGeometry x="160" y="478" width="170" height="30" as="geometry" />
        </mxCell>
        <mxCell id="PkrKyq_lBLV9Tqg6hcgz-63" value="" style="edgeStyle=orthogonalEdgeStyle;rounded=0;orthogonalLoop=1;jettySize=auto;html=1;entryX=0.5;entryY=0;entryDx=0;entryDy=0;strokeColor=#000000;" edge="1" parent="1">
          <mxGeometry relative="1" as="geometry">
            <mxPoint x="245" y="279" as="sourcePoint" />
            <mxPoint x="245" y="309" as="targetPoint" />
          </mxGeometry>
        </mxCell>
        <mxCell id="PkrKyq_lBLV9Tqg6hcgz-64" value="开发态&lt;div&gt;-&lt;/div&gt;&lt;div&gt;数据低代码开发&lt;/div&gt;" style="text;html=1;align=center;verticalAlign=middle;whiteSpace=wrap;rounded=0;fillColor=none;strokeColor=none;" vertex="1" parent="1">
          <mxGeometry x="123" y="340" width="24" height="140" as="geometry" />
        </mxCell>
        <mxCell id="PkrKyq_lBLV9Tqg6hcgz-65" value="" style="edgeStyle=orthogonalEdgeStyle;rounded=0;orthogonalLoop=1;jettySize=auto;html=1;fillColor=#99CCFF;strokeColor=#000000;" edge="1" parent="1" source="PkrKyq_lBLV9Tqg6hcgz-66" target="PkrKyq_lBLV9Tqg6hcgz-30">
          <mxGeometry relative="1" as="geometry" />
        </mxCell>
        <mxCell id="PkrKyq_lBLV9Tqg6hcgz-66" value="（开发态）元数据计算设置" style="rounded=0;whiteSpace=wrap;html=1;fillColor=#99CCFF;strokeColor=#6666FF;" vertex="1" parent="1">
          <mxGeometry x="160" y="533" width="170" height="30" as="geometry" />
        </mxCell>
        <mxCell id="PkrKyq_lBLV9Tqg6hcgz-67" value="" style="edgeStyle=orthogonalEdgeStyle;rounded=0;orthogonalLoop=1;jettySize=auto;html=1;fillColor=#99CCFF;strokeColor=#000000;" edge="1" parent="1" source="PkrKyq_lBLV9Tqg6hcgz-68" target="PkrKyq_lBLV9Tqg6hcgz-33">
          <mxGeometry relative="1" as="geometry" />
        </mxCell>
        <mxCell id="PkrKyq_lBLV9Tqg6hcgz-68" value="（开发态）查看数据落地结果" style="rounded=0;whiteSpace=wrap;html=1;fillColor=#99CCFF;strokeColor=#6666FF;" vertex="1" parent="1">
          <mxGeometry x="160" y="649" width="170" height="30" as="geometry" />
        </mxCell>
        <mxCell id="PkrKyq_lBLV9Tqg6hcgz-69" value="" style="rounded=0;whiteSpace=wrap;html=1;strokeColor=#FF3333;" vertex="1" parent="1">
          <mxGeometry x="456" y="933" width="260" height="267" as="geometry" />
        </mxCell>
        <mxCell id="PkrKyq_lBLV9Tqg6hcgz-70" value="" style="edgeStyle=orthogonalEdgeStyle;rounded=0;orthogonalLoop=1;jettySize=auto;html=1;entryX=0.5;entryY=0;entryDx=0;entryDy=0;fillColor=#99CCFF;strokeColor=#000000;" edge="1" parent="1" source="PkrKyq_lBLV9Tqg6hcgz-71" target="PkrKyq_lBLV9Tqg6hcgz-73">
          <mxGeometry relative="1" as="geometry">
            <mxPoint x="600" y="1029" as="targetPoint" />
          </mxGeometry>
        </mxCell>
        <mxCell id="PkrKyq_lBLV9Tqg6hcgz-71" value="配置域外资源及虚拟表" style="rounded=0;whiteSpace=wrap;html=1;fillColor=#99CCFF;strokeColor=#6666FF;" vertex="1" parent="1">
          <mxGeometry x="510" y="949" width="170" height="30" as="geometry" />
        </mxCell>
        <mxCell id="PkrKyq_lBLV9Tqg6hcgz-72" value="" style="edgeStyle=orthogonalEdgeStyle;rounded=0;orthogonalLoop=1;jettySize=auto;html=1;entryX=0.5;entryY=0;entryDx=0;entryDy=0;fillColor=#99CCFF;strokeColor=#000000;" edge="1" parent="1" source="PkrKyq_lBLV9Tqg6hcgz-73" target="PkrKyq_lBLV9Tqg6hcgz-75">
          <mxGeometry relative="1" as="geometry" />
        </mxCell>
        <mxCell id="PkrKyq_lBLV9Tqg6hcgz-73" value="通用配置（与上层应用消息接口、域内数据源类型）" style="rounded=0;whiteSpace=wrap;html=1;fillColor=#99CCFF;strokeColor=#6666FF;" vertex="1" parent="1">
          <mxGeometry x="510" y="998" width="170" height="30" as="geometry" />
        </mxCell>
        <mxCell id="PkrKyq_lBLV9Tqg6hcgz-74" value="" style="edgeStyle=orthogonalEdgeStyle;rounded=0;orthogonalLoop=1;jettySize=auto;html=1;fillColor=#99CCFF;strokeColor=#000000;" edge="1" parent="1" source="PkrKyq_lBLV9Tqg6hcgz-75" target="PkrKyq_lBLV9Tqg6hcgz-77">
          <mxGeometry relative="1" as="geometry" />
        </mxCell>
        <mxCell id="PkrKyq_lBLV9Tqg6hcgz-75" value="配置域内连接器" style="rounded=0;whiteSpace=wrap;html=1;fillColor=#99CCFF;strokeColor=#6666FF;" vertex="1" parent="1">
          <mxGeometry x="510" y="1050" width="170" height="30" as="geometry" />
        </mxCell>
        <mxCell id="PkrKyq_lBLV9Tqg6hcgz-76" value="" style="edgeStyle=orthogonalEdgeStyle;rounded=0;orthogonalLoop=1;jettySize=auto;html=1;fillColor=#99CCFF;strokeColor=#000000;" edge="1" parent="1" source="PkrKyq_lBLV9Tqg6hcgz-77" target="PkrKyq_lBLV9Tqg6hcgz-82">
          <mxGeometry relative="1" as="geometry" />
        </mxCell>
        <mxCell id="PkrKyq_lBLV9Tqg6hcgz-77" value="配置落地连接器" style="rounded=0;whiteSpace=wrap;html=1;fillColor=#99CCFF;strokeColor=#6666FF;" vertex="1" parent="1">
          <mxGeometry x="510" y="1102" width="170" height="30" as="geometry" />
        </mxCell>
        <mxCell id="PkrKyq_lBLV9Tqg6hcgz-78" value="开发态&lt;div&gt;-&lt;/div&gt;&lt;div&gt;数据低代码开发&lt;/div&gt;" style="text;html=1;align=center;verticalAlign=middle;whiteSpace=wrap;rounded=0;" vertex="1" parent="1">
          <mxGeometry x="470" y="992" width="24" height="140" as="geometry" />
        </mxCell>
        <mxCell id="PkrKyq_lBLV9Tqg6hcgz-79" value="" style="edgeStyle=orthogonalEdgeStyle;rounded=0;orthogonalLoop=1;jettySize=auto;html=1;entryX=0.5;entryY=0;entryDx=0;entryDy=0;fillColor=#99CCFF;strokeColor=#000000;" edge="1" parent="1" source="PkrKyq_lBLV9Tqg6hcgz-80" target="PkrKyq_lBLV9Tqg6hcgz-71">
          <mxGeometry relative="1" as="geometry" />
        </mxCell>
        <mxCell id="PkrKyq_lBLV9Tqg6hcgz-80" value="分配开发者与生产者" style="rounded=0;whiteSpace=wrap;html=1;fillColor=#99CCFF;strokeColor=#6666FF;" vertex="1" parent="1">
          <mxGeometry x="510" y="887" width="170" height="30" as="geometry" />
        </mxCell>
        <mxCell id="PkrKyq_lBLV9Tqg6hcgz-81" value="" style="edgeStyle=orthogonalEdgeStyle;rounded=0;orthogonalLoop=1;jettySize=auto;html=1;entryX=0.5;entryY=0;entryDx=0;entryDy=0;" edge="1" parent="1" source="PkrKyq_lBLV9Tqg6hcgz-82" target="PkrKyq_lBLV9Tqg6hcgz-36">
          <mxGeometry relative="1" as="geometry" />
        </mxCell>
        <mxCell id="PkrKyq_lBLV9Tqg6hcgz-82" value="配置跨域联合计算逻辑" style="rounded=0;whiteSpace=wrap;html=1;fillColor=#99CCFF;strokeColor=#6666FF;" vertex="1" parent="1">
          <mxGeometry x="510" y="1160" width="170" height="30" as="geometry" />
        </mxCell>
        <mxCell id="PkrKyq_lBLV9Tqg6hcgz-83" value="" style="edgeStyle=orthogonalEdgeStyle;rounded=0;orthogonalLoop=1;jettySize=auto;html=1;entryX=0.5;entryY=0;entryDx=0;entryDy=0;" edge="1" parent="1" source="PkrKyq_lBLV9Tqg6hcgz-84" target="PkrKyq_lBLV9Tqg6hcgz-52">
          <mxGeometry relative="1" as="geometry" />
        </mxCell>
        <mxCell id="PkrKyq_lBLV9Tqg6hcgz-84" value="发布资源接入沙盒至生产态" style="rounded=0;whiteSpace=wrap;html=1;fillColor=#99CCFF;strokeColor=#6666FF;" vertex="1" parent="1">
          <mxGeometry x="160" y="1397" width="170" height="30" as="geometry" />
        </mxCell>
        <mxCell id="PkrKyq_lBLV9Tqg6hcgz-85" value="" style="edgeStyle=orthogonalEdgeStyle;rounded=0;orthogonalLoop=1;jettySize=auto;html=1;" edge="1" parent="1" source="PkrKyq_lBLV9Tqg6hcgz-86" target="PkrKyq_lBLV9Tqg6hcgz-88">
          <mxGeometry relative="1" as="geometry" />
        </mxCell>
        <mxCell id="PkrKyq_lBLV9Tqg6hcgz-86" value="（生产态）查看数据落地结果" style="rounded=0;whiteSpace=wrap;html=1;fillColor=#99CCFF;strokeColor=#6666FF;" vertex="1" parent="1">
          <mxGeometry x="160" y="1592" width="170" height="30" as="geometry" />
        </mxCell>
        <mxCell id="PkrKyq_lBLV9Tqg6hcgz-87" value="" style="edgeStyle=orthogonalEdgeStyle;rounded=0;orthogonalLoop=1;jettySize=auto;html=1;entryX=0;entryY=0.5;entryDx=0;entryDy=0;exitX=1;exitY=0.5;exitDx=0;exitDy=0;" edge="1" parent="1" source="PkrKyq_lBLV9Tqg6hcgz-88" target="PkrKyq_lBLV9Tqg6hcgz-90">
          <mxGeometry relative="1" as="geometry">
            <Array as="points">
              <mxPoint x="390" y="1671" />
              <mxPoint x="390" y="1412" />
            </Array>
          </mxGeometry>
        </mxCell>
        <mxCell id="PkrKyq_lBLV9Tqg6hcgz-88" value="（生产态）同步授权" style="rounded=0;whiteSpace=wrap;html=1;fillColor=#99CCFF;strokeColor=#6666FF;" vertex="1" parent="1">
          <mxGeometry x="160" y="1656" width="170" height="30" as="geometry" />
        </mxCell>
        <mxCell id="PkrKyq_lBLV9Tqg6hcgz-89" value="" style="edgeStyle=orthogonalEdgeStyle;rounded=0;orthogonalLoop=1;jettySize=auto;html=1;entryX=0.5;entryY=0;entryDx=0;entryDy=0;fillColor=#99CCFF;strokeColor=#000000;" edge="1" parent="1" source="PkrKyq_lBLV9Tqg6hcgz-42" target="PkrKyq_lBLV9Tqg6hcgz-90">
          <mxGeometry relative="1" as="geometry">
            <mxPoint x="595" y="1367" as="sourcePoint" />
            <mxPoint x="595" y="1536" as="targetPoint" />
          </mxGeometry>
        </mxCell>
        <mxCell id="PkrKyq_lBLV9Tqg6hcgz-90" value="发布沙盒APP至生产环境" style="rounded=0;whiteSpace=wrap;html=1;fillColor=#99CCFF;strokeColor=#6666FF;" vertex="1" parent="1">
          <mxGeometry x="510" y="1397" width="170" height="30" as="geometry" />
        </mxCell>
        <mxCell id="PkrKyq_lBLV9Tqg6hcgz-91" value="（生产态）配置生产环境的连接器地址、账密、表名/Topic" style="rounded=0;whiteSpace=wrap;html=1;fillColor=#99CCFF;strokeColor=#6666FF;" vertex="1" parent="1">
          <mxGeometry x="510" y="1459" width="170" height="39" as="geometry" />
        </mxCell>
      </root>
    </mxGraphModel>
  </diagram>
</mxfile>
